<mxfile host="65bd71144e">
    <diagram id="7cgVAkK2m2HlgJUMTnLv" name="Page-1">
        <mxGraphModel dx="840" dy="712" grid="1" gridSize="10" guides="1" tooltips="1" connect="1" arrows="1" fold="1" page="1" pageScale="1" pageWidth="827" pageHeight="1169" math="0" shadow="0">
            <root>
                <mxCell id="0"/>
                <mxCell id="1" parent="0"/>
                <mxCell id="3" value="" style="aspect=fixed;html=1;points=[];align=center;image;fontSize=12;image=img/lib/azure2/databases/Azure_Database_MariaDB_Server.svg;" vertex="1" parent="1">
                    <mxGeometry x="633.75" y="320" width="87.5" height="116.67" as="geometry"/>
                </mxCell>
                <mxCell id="4" value="" style="sketch=0;aspect=fixed;html=1;points=[];align=center;image;fontSize=12;image=img/lib/mscae/Cache_Redis_Product.svg;" vertex="1" parent="1">
                    <mxGeometry x="100" y="270" width="50" height="42" as="geometry"/>
                </mxCell>
                <mxCell id="5" value="" style="aspect=fixed;html=1;points=[];align=center;image;fontSize=12;image=img/lib/azure2/databases/Cache_Redis.svg;" vertex="1" parent="1">
                    <mxGeometry x="70" y="320" width="135.38" height="110" as="geometry"/>
                </mxCell>
                <mxCell id="6" value="" style="aspect=fixed;perimeter=ellipsePerimeter;html=1;align=center;shadow=0;dashed=0;spacingTop=3;image;image=img/lib/active_directory/web_server.svg;" vertex="1" parent="1">
                    <mxGeometry x="350" y="70" width="104" height="130" as="geometry"/>
                </mxCell>
                <mxCell id="7" value="" style="outlineConnect=0;dashed=0;verticalLabelPosition=bottom;verticalAlign=top;align=center;html=1;shape=mxgraph.aws3.postgre_sql_instance;fillColor=#2E73B8;gradientColor=none;" vertex="1" parent="1">
                    <mxGeometry x="655.63" y="280" width="43.75" height="40" as="geometry"/>
                </mxCell>
                <mxCell id="8" value="" style="verticalLabelPosition=bottom;html=1;verticalAlign=top;align=center;strokeColor=none;fillColor=#00BEF2;shape=mxgraph.azure.cloud_service_package_file;" vertex="1" parent="1">
                    <mxGeometry x="375" y="578" width="100" height="100" as="geometry"/>
                </mxCell>
                <mxCell id="9" value="" style="line;strokeWidth=4;html=1;perimeter=backbonePerimeter;points=[];outlineConnect=0;" vertex="1" parent="1">
                    <mxGeometry x="130" y="510" width="590" height="10" as="geometry"/>
                </mxCell>
                <mxCell id="10" value="" style="line;strokeWidth=4;direction=south;html=1;perimeter=backbonePerimeter;points=[];outlineConnect=0;" vertex="1" parent="1">
                    <mxGeometry x="420" y="516" width="10" height="65" as="geometry"/>
                </mxCell>
                <mxCell id="11" value="" style="aspect=fixed;html=1;points=[];align=center;image;fontSize=12;image=img/lib/azure2/networking/Network_Security_Groups.svg;" vertex="1" parent="1">
                    <mxGeometry x="274" y="100" width="56.00000000000001" height="68" as="geometry"/>
                </mxCell>
                <mxCell id="15" value="" style="endArrow=classic;startArrow=classic;html=1;entryX=0.76;entryY=1;entryDx=0;entryDy=0;entryPerimeter=0;" edge="1" parent="1" target="6">
                    <mxGeometry width="50" height="50" relative="1" as="geometry">
                        <mxPoint x="630" y="350" as="sourcePoint"/>
                        <mxPoint x="430" y="190" as="targetPoint"/>
                        <Array as="points">
                            <mxPoint x="500" y="300"/>
                        </Array>
                    </mxGeometry>
                </mxCell>
                <mxCell id="16" value="" style="endArrow=classic;startArrow=classic;html=1;" edge="1" parent="1" target="6">
                    <mxGeometry width="50" height="50" relative="1" as="geometry">
                        <mxPoint x="210" y="350" as="sourcePoint"/>
                        <mxPoint x="452.03999999999996" y="208.96000000000004" as="targetPoint"/>
                        <Array as="points">
                            <mxPoint x="320" y="310"/>
                        </Array>
                    </mxGeometry>
                </mxCell>
                <mxCell id="17" value="" style="endArrow=classic;startArrow=classic;html=1;" edge="1" parent="1" source="9">
                    <mxGeometry width="50" height="50" relative="1" as="geometry">
                        <mxPoint x="390" y="400" as="sourcePoint"/>
                        <mxPoint x="402" y="200" as="targetPoint"/>
                    </mxGeometry>
                </mxCell>
                <mxCell id="18" value="SERVEUR WEB&lt;br&gt;CENTOS 8" style="rounded=1;whiteSpace=wrap;html=1;" vertex="1" parent="1">
                    <mxGeometry x="315" y="20" width="220" height="40" as="geometry"/>
                </mxCell>
                <mxCell id="19" value="SERVEUR DE BASE DE DONNÃ‰E (POSTGRESQL)" style="rounded=1;whiteSpace=wrap;html=1;" vertex="1" parent="1">
                    <mxGeometry x="567.51" y="230" width="220" height="40" as="geometry"/>
                </mxCell>
                <mxCell id="20" value="SERVEUR &lt;br&gt;DE CACHE (REDIS)" style="rounded=1;whiteSpace=wrap;html=1;" vertex="1" parent="1">
                    <mxGeometry x="20" y="220" width="220" height="40" as="geometry"/>
                </mxCell>
                <mxCell id="21" value="FICHIER PARTAGE" style="rounded=1;whiteSpace=wrap;html=1;" vertex="1" parent="1">
                    <mxGeometry x="476" y="555" width="100" height="40" as="geometry"/>
                </mxCell>
                <mxCell id="23" value="RAM: 8 Go&amp;nbsp;&lt;br&gt;SSD: 30 Go" style="text;html=1;strokeColor=#006EAF;fillColor=#1ba1e2;align=center;verticalAlign=middle;whiteSpace=wrap;rounded=0;fontColor=#ffffff;" vertex="1" parent="1">
                    <mxGeometry x="481" y="100" width="99" height="40" as="geometry"/>
                </mxCell>
                <mxCell id="24" value="RAM: 8 Go&amp;nbsp;&lt;br&gt;SSD: 30 Go" style="text;html=1;strokeColor=#006EAF;fillColor=#1ba1e2;align=center;verticalAlign=middle;whiteSpace=wrap;rounded=0;fontColor=#ffffff;" vertex="1" parent="1">
                    <mxGeometry x="80" y="436.67" width="100" height="40" as="geometry"/>
                </mxCell>
                <mxCell id="25" value="RAM: 16 Go&amp;nbsp;&lt;br&gt;SSD: 30 Go" style="text;html=1;strokeColor=#006EAF;fillColor=#1ba1e2;align=center;verticalAlign=middle;whiteSpace=wrap;rounded=0;fontColor=#ffffff;" vertex="1" parent="1">
                    <mxGeometry x="699.38" y="436.67" width="100" height="40" as="geometry"/>
                </mxCell>
                <mxCell id="26" value="SSD: 50 Go" style="text;html=1;strokeColor=#006EAF;fillColor=#1ba1e2;align=center;verticalAlign=middle;whiteSpace=wrap;rounded=0;fontColor=#ffffff;" vertex="1" parent="1">
                    <mxGeometry x="500" y="630" width="100" height="30" as="geometry"/>
                </mxCell>
            </root>
        </mxGraphModel>
    </diagram>
</mxfile>